name C:\Users\u0101727\Documents\MyRepositories\upper-imu-dc\Results\main_tracking\Case_31\FLX01_angularVelocities_groundFrame.mot
datacolumns 4
datarows 105
range 2.01000000 3.05000000
endheader 
time	radius_imu_x	radius_imu_y	radius_imu_z	
          2.01000000	         -0.99262732	          0.45639950	          0.97119073	
          2.02000000	         -1.03417061	          0.30492331	          0.96152561	
          2.03000000	         -1.06591954	          0.17188467	          0.95111218	
          2.04000000	         -1.08594090	          0.05871766	          0.93947652	
          2.05000000	         -1.09034954	         -0.03240210	          0.92679661	
          2.06000000	         -1.07400656	         -0.09866203	          0.91402970	
          2.07000000	         -1.03215564	         -0.13731788	          0.90272809	
          2.08000000	         -0.96245039	         -0.14681425	          0.89461159	
          2.09000000	         -0.86672121	         -0.12798685	          0.89102658	
          2.10000000	         -0.75190522	         -0.08496172	          0.89243650	
          2.11000000	         -0.62968418	         -0.02536890	          0.89808155	
          2.12000000	         -0.51463484	          0.04040893	          0.90594187	
          2.13000000	         -0.42114026	          0.10098936	          0.91312010	
          2.14000000	         -0.35988648	          0.14637854	          0.91663517	
          2.15000000	         -0.33534112	          0.17011138	          0.91435571	
          2.16000000	         -0.34544094	          0.17015156	          0.90563072	
          2.17000000	         -0.38344528	          0.14826772	          0.89134093	
          2.18000000	         -0.44068840	          0.10849910	          0.87344072	
          2.19000000	         -0.50879996	          0.05564697	          0.85429300	
          2.20000000	         -0.58059320	         -0.00551268	          0.83612911	
          2.21000000	         -0.64973160	         -0.07017525	          0.82080719	
          2.22000000	         -0.71008306	         -0.13315274	          0.80978539	
          2.23000000	         -0.75575044	         -0.18897102	          0.80410039	
          2.24000000	         -0.78198768	         -0.23267572	          0.80425771	
          2.25000000	         -0.78641678	         -0.26097110	          0.81010443	
          2.26000000	         -0.76987633	         -0.27317410	          0.82077152	
          2.27000000	         -0.73658048	         -0.27167391	          0.83470989	
          2.28000000	         -0.69353740	         -0.26176089	          0.84982647	
          2.29000000	         -0.64933381	         -0.25080578	          0.86372761	
          2.30000000	         -0.61252973	         -0.24691525	          0.87405109	
          2.31000000	         -0.58994957	         -0.25727179	          0.87885165	
          2.32000000	         -0.58515810	         -0.28641817	          0.87698575	
          2.33000000	         -0.59752752	         -0.33492278	          0.86838529	
          2.34000000	         -0.62235941	         -0.39899954	          0.85407712	
          2.35000000	         -0.65216191	         -0.47136286	          0.83589625	
          2.36000000	         -0.67856351	         -0.54295743	          0.81601784	
          2.37000000	         -0.69413735	         -0.60487813	          0.79650493	
          2.38000000	         -0.69373430	         -0.65001346	          0.77897775	
          2.39000000	         -0.67520201	         -0.67417991	          0.76441932	
          2.40000000	         -0.63941719	         -0.67654848	          0.75312090	
          2.41000000	         -0.58971332	         -0.65933971	          0.74474976	
          2.42000000	         -0.53102366	         -0.62707608	          0.73847672	
          2.43000000	         -0.46906102	         -0.58574778	          0.73310885	
          2.44000000	         -0.40964546	         -0.54204454	          0.72722757	
          2.45000000	         -0.35812438	         -0.50260591	          0.71937216	
          2.46000000	         -0.31879628	         -0.47318630	          0.70830145	
          2.47000000	         -0.29431655	         -0.45771604	          0.69331574	
          2.48000000	         -0.28520825	         -0.45744509	          0.67454808	
          2.49000000	         -0.28973492	         -0.47056092	          0.65308520	
          2.50000000	         -0.30431821	         -0.49260170	          0.63081645	
          2.51000000	         -0.32437042	         -0.51755908	          0.61004266	
          2.52000000	         -0.34519644	         -0.53920777	          0.59298931	
          2.53000000	         -0.36272043	         -0.55225998	          0.58136880	
          2.54000000	         -0.37397710	         -0.55317174	          0.57608110	
          2.55000000	         -0.37736059	         -0.54053273	          0.57710115	
          2.56000000	         -0.37262874	         -0.51503385	          0.58355548	
          2.57000000	         -0.36071000	         -0.47911775	          0.59393211	
          2.58000000	         -0.34340978	         -0.43649245	          0.60634080	
          2.59000000	         -0.32308898	         -0.39161909	          0.61877558	
          2.60000000	         -0.30233448	         -0.34916805	          0.62937940	
          2.61000000	         -0.28362790	         -0.31342187	          0.63670446	
          2.62000000	         -0.26903160	         -0.28767407	          0.63991820	
          2.63000000	         -0.25992190	         -0.27373148	          0.63889142	
          2.64000000	         -0.25682254	         -0.27165706	          0.63413958	
          2.65000000	         -0.25940884	         -0.27987918	          0.62663866	
          2.66000000	         -0.26670234	         -0.29568477	          0.61757277	
          2.67000000	         -0.27737366	         -0.31593628	          0.60808215	
          2.68000000	         -0.28999792	         -0.33771271	          0.59907859	
          2.69000000	         -0.30314954	         -0.35860986	          0.59117954	
          2.70000000	         -0.31537994	         -0.37669354	          0.58476091	
          2.71000000	         -0.32524362	         -0.39037100	          0.58006349	
          2.72000000	         -0.33149082	         -0.39846488	          0.57726431	
          2.73000000	         -0.33337192	         -0.40052025	          0.57646788	
          2.74000000	         -0.33086004	         -0.39708157	          0.57765149	
          2.75000000	         -0.32461398	         -0.38961945	          0.58063494	
          2.76000000	         -0.31567176	         -0.38003910	          0.58510601	
          2.77000000	         -0.30504977	         -0.37002679	          0.59067728	
          2.78000000	         -0.29347724	         -0.36062118	          0.59692274	
          2.79000000	         -0.28135901	         -0.35217140	          0.60338799	
          2.80000000	         -0.26890393	         -0.34460120	          0.60958446	
          2.81000000	         -0.25628810	         -0.33777227	          0.61497695	
          2.82000000	         -0.24371331	         -0.33163376	          0.61902502	
          2.83000000	         -0.23134482	         -0.32610604	          0.62127364	
          2.84000000	         -0.21922831	         -0.32092619	          0.62143277	
          2.85000000	         -0.20729632	         -0.31570108	          0.61940203	
          2.86000000	         -0.19549623	         -0.31024581	          0.61522418	
          2.87000000	         -0.18394979	         -0.30498671	          0.60900567	
          2.88000000	         -0.17300704	         -0.30107314	          0.60086785	
          2.89000000	         -0.16312696	         -0.29999727	          0.59097060	
          2.90000000	         -0.15464432	         -0.30285946	          0.57959179	
          2.91000000	         -0.14755859	         -0.30966580	          0.56719459	
          2.92000000	         -0.14145476	         -0.31903501	          0.55440537	
          2.93000000	         -0.13557835	         -0.32846277	          0.54187377	
          2.94000000	         -0.12900712	         -0.33499717	          0.53006581	
          2.95000000	         -0.12083774	         -0.33600281	          0.51909448	
          2.96000000	         -0.11034511	         -0.32974118	          0.50867593	
          2.97000000	         -0.09713253	         -0.31571455	          0.49821926	
          2.98000000	         -0.08130053	         -0.29488632	          0.48697754	
          2.99000000	         -0.06358546	         -0.26977671	          0.47419239	
          3.00000000	         -0.04533385	         -0.24416671	          0.45924066	
          3.01000000	         -0.02821898	         -0.22218716	          0.44180963	
          3.02000000	         -0.01377625	         -0.20702992	          0.42205108	
          3.03000000	         -0.00296691	         -0.19990059	          0.40061217	
          3.04000000	          0.00404744	         -0.19970681	          0.37849491	
          3.05000000	          0.00786371	         -0.20352186	          0.35680126	
